<svg width="1890" height="557" viewBox="0 0 1890 557" fill="none" xmlns="http://www.w3.org/2000/svg">
<path d="M16.8513 1.01953C22.9362 0.319795 38.8389 0.822508 45.4936 0.856421C62.7264 0.949421 79.9601 0.951989 97.1925 0.863929L183.747 0.730647C197.94 0.752021 218.953 0.252731 232.745 1.59871C247.663 3.17572 262.325 6.61852 276.386 11.8466C313.617 25.4787 342.394 49.9332 359.088 86.3352C371.865 114.699 372.905 146.967 361.98 176.095C346.729 216.887 318.13 236.573 280.423 253.801C377.304 278.666 418.177 340.374 391.31 440.319C386.651 457.652 378.891 469.474 369.372 484.375L368.16 485.834C339.882 519.545 288.786 543.321 244.994 545.59C172.224 549.36 97.9779 546.025 25.0856 546.41C5.96374 546.512 10.1489 532.145 10.1999 518.042L10.3053 478.748C10.3373 446.08 8.58977 412.501 10.5219 379.942C10.9534 372.672 12.0576 365.096 13.8279 358.035C19.1829 336.673 45.1351 300.215 45.6107 286.086C45.9568 275.806 13.9697 274.993 4.32103 264.414C-7.51545 251.438 8.59651 193.74 9.72239 175.315C13.1116 119.855 8.38777 63.7074 10.4257 8.14603C12.3326 5.32364 14.4414 3.40732 16.8513 1.01953ZM80.0189 494.958L155.66 494.995C180.079 494.947 208.025 496.406 231.646 490.68C255.604 484.872 282.307 466.952 292.858 443.981C306.9 421.35 307.456 391.205 302.041 366.562C293.139 328.106 261.491 303.809 225.922 290.95C211.973 285.907 194.661 277.495 190.438 262.061C185.864 245.352 208.599 230.248 220.633 222.048C261.313 194.326 280.381 165.118 270.943 114.803C266.206 84.5626 249.572 60.7417 224.563 43.39C195.156 22.986 169.72 25.7038 135.771 25.5784C117.172 25.4169 98.5734 25.4977 79.9781 25.8216C78.4548 34.8604 79.4729 47.6353 79.282 57.0056C78.5649 92.3484 82.5927 128.487 73.1098 163.025C66.2705 187.532 53.4657 208.958 43.1465 231.914C42.6285 233.587 41.3041 237.185 42.8161 238.556C57.3009 251.681 87.2719 263.252 84.4294 288.069C79.3019 332.828 78.7178 377.451 79.4548 422.603C79.8357 445.967 78.4225 471.609 80.0189 494.958Z" fill="#DFD0A7"/>
<path d="M1852.06 401.401C1855.54 386.43 1854.34 330.721 1854.33 311.85L1854.38 107.241L1854.29 45.6784C1854.28 34.4519 1853.83 22.6388 1854.79 11.5233C1856.04 -3.00405 1873 0.0374911 1882.64 1.17287C1885.28 3.49131 1887.17 6.4713 1889.2 9.35677C1889.35 11.9191 1889.45 14.4843 1889.5 17.0507C1889.98 57.1405 1889.44 98.4955 1889.43 138.705L1889.38 374.579L1889.36 483.092C1889.41 500.686 1889.74 519.521 1889.08 537.127C1888.98 539.91 1885.87 542.82 1883.92 544.84C1877.21 547.1 1869.75 546.46 1862.77 546.112C1851.06 539.028 1818.41 505.298 1806.33 494.139C1777.78 467.449 1747.95 441.067 1721.82 411.952C1709.07 397.739 1694.39 371.772 1688.01 354.018C1682.62 339.018 1683.46 329.698 1672.66 316.238C1661.04 320.06 1648.24 325.005 1636.05 325.158C1630.35 325.229 1621.81 324.851 1617.15 321.711C1604.1 312.894 1592.56 300.176 1581.53 288.945L1543.61 250.509C1512.67 219.982 1481.45 189.737 1449.96 159.777C1449.92 181.311 1448.21 204.861 1447.93 226.901L1447.13 439.14C1446.94 472.21 1445.52 503.931 1445.69 537.793C1437.79 550.925 1420.62 549.241 1411.26 538.211C1410.26 498.071 1411.03 454.816 1411.03 414.47L1411.02 191.276L1411.04 71.8039C1411.04 55.2206 1410.17 22.255 1411.99 7.03481C1415.24 3.44191 1416.42 1.82834 1420.95 0.281822C1427.88 0.0428146 1430.65 0.254744 1437.53 1.17819C1453.18 13.3975 1474.05 36.0535 1488.86 50.1603L1609 166.337L1786.84 338.495C1807.1 358.304 1833.23 381.393 1852.06 401.401Z" fill="#DFD0A7"/>
<path d="M983.888 1.07968C1018.29 -0.396162 1057.88 0.331785 1092.47 0.880095C1155.49 1.87934 1223.45 -8.19143 1278.26 28.9432C1336.47 68.3765 1357.83 143.98 1315.06 203.071C1286.43 243.123 1242 260.29 1195.19 268.74C1214.47 281.252 1237.88 290.485 1249.03 313.054C1274.98 365.588 1300.76 418.305 1326.35 471.019C1328.72 476.037 1328.41 481.714 1328.91 486.928C1329.95 497.837 1320.56 504.228 1313.09 511.559C1314.39 526.22 1351 517.068 1357.71 528.201C1362.58 536.284 1357.29 546.38 1347 546.397C1328.65 546.427 1310.43 546.984 1292.12 545.933C1189.49 531.213 1217.96 392.597 1189.84 321.819C1178.8 294.023 1159.13 296.129 1143.73 277.478C1129.31 259.999 1162.95 244.269 1175.71 236.368C1188.79 227.499 1197.86 220.538 1209.28 209.808C1262.68 159.662 1245.15 69.6874 1181.7 36.9351C1156.33 23.8362 1137.19 25.53 1109.63 25.3533C1088.73 25.265 1067.81 25.3951 1046.92 25.7437L1046.83 113.477C1046.79 130.086 1046.35 147.667 1047.3 164.1C1048.96 192.682 1056.5 222.69 1058.63 250.975C1060.55 276.562 1026.48 271.545 1013.25 281.739C1011.06 283.43 1011.04 288.206 1011.85 290.762C1021.31 317.026 1046.01 344.217 1046.78 373.112C1047.51 400.342 1046.76 428.155 1046.82 455.461L1046.99 506.525C1047.06 520.064 1052.11 548.444 1032.66 546.285C1021.72 545.071 989.188 549.891 980.84 542.261C974.629 536.58 977.62 508.575 977.155 499.735C976.823 483.026 977.753 464.641 977.744 447.646C977.706 405.91 978.342 363.843 976.756 322.134C976.139 305.816 970.906 288.317 976.101 272.084C983.585 256.847 999.825 250.422 1012.54 240.783C1017 237.528 1014.73 231.022 1012.74 226.834C1004.36 208.9 994.012 193.015 987.887 173.934C971.713 123.552 978.219 69.5791 977.316 17.5205C977.193 10.2867 978.58 5.90788 983.888 1.07968Z" fill="#DFD0A7"/>
<path d="M476.037 0.479612C495.593 0.260269 519.773 -0.804627 539.057 1.1934C550.72 2.40164 550.547 12.5233 550.587 22.844L550.464 274.586L550.545 344.438C550.612 378.629 548.435 410.077 569.155 439.828C591.285 471.603 618.917 490.888 655.752 500.569C705.175 515.239 730.739 465.859 773.989 452.169C798.853 444.298 828.062 447.652 851.327 439.907C862.485 436.193 842.584 402.745 845.755 392.859C849.503 381.173 856.901 384.321 866.728 378.914C871.323 376.259 869.752 355.779 869.723 350.183L869.544 302.938L869.685 99.2897L869.577 43.7966C869.553 33.331 869.076 16.8565 870.7 6.98153L877.119 0.800981C877.952 0.720616 878.786 0.654684 879.622 0.603196C905.379 -0.973907 903.009 6.33072 903.312 29.819C903.455 40.7786 903.139 51.9823 902.999 62.9456C902.403 91.1334 902.866 120.984 902.864 149.328L902.809 293.851C902.857 321.575 904.598 356.67 901.445 384.344C900.581 391.937 887.977 398.955 884.625 403.596C882.716 406.24 891.532 420.288 892.511 427.531C894.728 443.925 885.274 458.151 876.106 470.635C845.544 512.257 788.288 546.351 737.162 553.189C672.406 561.85 587.265 553.492 533.616 513.426C497.745 486.709 474.108 446.698 468.011 402.381C465.468 385.041 463.926 367.568 463.391 350.05C461.756 290.562 463.894 222.965 463.893 162.436L463.871 57.8663C463.879 43.5629 463.782 29.3127 463.59 15.0132C463.47 6.11603 467.476 1.48532 476.037 0.479612Z" fill="#DFD0A7"/>
</svg>
