<svg width="400" height="547" viewBox="0 0 400 547" fill="none" xmlns="http://www.w3.org/2000/svg">
<path d="M16.8513 0.369502C22.9362 -0.33023 38.8389 0.172483 45.4936 0.206396C62.7264 0.299396 79.9601 0.301965 97.1925 0.213905L183.747 0.0806228C197.94 0.101997 218.953 -0.397293 232.745 0.948688C247.663 2.5257 262.325 5.96849 276.386 11.1965C313.617 24.8287 342.394 49.2832 359.088 85.6852C371.865 114.049 372.905 146.317 361.98 175.445C346.729 216.237 318.13 235.923 280.423 253.151C377.304 278.016 418.177 339.724 391.31 439.669C386.651 457.002 378.891 468.824 369.372 483.725L368.16 485.184C339.882 518.895 288.786 542.671 244.994 544.94C172.224 548.71 97.9779 545.375 25.0856 545.76C5.96374 545.862 10.1489 531.495 10.1999 517.392L10.3053 478.098C10.3373 445.43 8.58977 411.851 10.5219 379.292C10.9534 372.022 12.0576 364.446 13.8279 357.385C19.1829 336.023 45.1351 299.565 45.6107 285.436C45.9568 275.156 13.9697 274.343 4.32103 263.764C-7.51545 250.788 8.59651 193.09 9.72239 174.665C13.1116 119.205 8.38777 63.0574 10.4257 7.49601C12.3326 4.67362 14.4414 2.75729 16.8513 0.369502ZM80.0189 494.308L155.66 494.345C180.079 494.297 208.025 495.756 231.646 490.03C255.604 484.222 282.307 466.302 292.858 443.331C306.9 420.7 307.456 390.555 302.041 365.912C293.139 327.456 261.491 303.159 225.922 290.3C211.973 285.257 194.661 276.845 190.438 261.411C185.864 244.702 208.599 229.598 220.633 221.398C261.313 193.676 280.381 164.468 270.943 114.153C266.206 83.9126 249.572 60.0917 224.563 42.7399C195.156 22.336 169.72 25.0538 135.771 24.9284C117.172 24.7669 98.5734 24.8477 79.9781 25.1716C78.4548 34.2104 79.4729 46.9852 79.282 56.3555C78.5649 91.6983 82.5927 127.837 73.1098 162.374C66.2705 186.882 53.4657 208.308 43.1465 231.264C42.6285 232.937 41.3041 236.535 42.8161 237.906C57.3009 251.031 87.2719 262.602 84.4294 287.419C79.3019 332.178 78.7178 376.8 79.4548 421.953C79.8357 445.317 78.4225 470.959 80.0189 494.308Z" fill="#473728"/>
</svg>
